<svg width="261" height="130" viewBox="0 0 261 130" fill="none" xmlns="http://www.w3.org/2000/svg">
<path fill-rule="evenodd" clip-rule="evenodd" d="M131 128C161.376 128 186 103.376 186 73C186 42.6243 161.376 18 131 18C100.624 18 76 42.6243 76 73C76 103.376 100.624 128 131 128ZM131 116C154.748 116 174 96.7482 174 73C174 49.2518 154.748 30 131 30C107.252 30 88 49.2518 88 73C88 96.7482 107.252 116 131 116Z" fill="#87AAAA"/>
<path fill-rule="evenodd" clip-rule="evenodd" d="M131 115C154.196 115 173 96.196 173 73C173 49.804 154.196 31 131 31C107.804 31 89 49.804 89 73C89 96.196 107.804 115 131 115Z" fill="#87AAAA"/>
<rect x="56" y="49" width="150" height="48" fill="#B7CAD8"/>
<path d="M81.18 73.18H79.92C79.2 76.6067 78.84 78.3733 78.84 78.48C78.84 78.5867 78.9133 78.64 79.06 78.64H80.34L80.28 79H76.2L76.26 78.64H77.18C77.3533 78.64 77.46 78.54 77.5 78.34C79.1 70.7667 79.9 66.9467 79.9 66.88C79.9 66.8 79.8267 66.76 79.68 66.76H78.8L78.86 66.4H83.4C84.32 66.4 85.08 66.64 85.68 67.12C86.2933 67.5867 86.6 68.28 86.6 69.2C86.6 70.1067 86.2667 70.9133 85.6 71.62C84.9467 72.3267 84.1333 72.8 83.16 73.04C84.0933 73.4 84.56 74.1267 84.56 75.22C84.56 75.6067 84.4933 76.12 84.36 76.76C84.24 77.4 84.18 77.8133 84.18 78C84.18 78.3733 84.3267 78.56 84.62 78.56C84.9133 78.56 85.22 78.3533 85.54 77.94C85.86 77.5133 86.1467 76.9133 86.4 76.14L86.74 76.22C86.38 77.2867 85.98 78.06 85.54 78.54C85.1 79.0067 84.58 79.24 83.98 79.24C83.6867 79.24 83.44 79.1333 83.24 78.92C83.04 78.6933 82.94 78.38 82.94 77.98C82.94 77.58 83 77.0667 83.12 76.44C83.2533 75.8133 83.32 75.2533 83.32 74.76C83.32 73.7067 82.6067 73.18 81.18 73.18ZM83.2 66.86H81.28L80.02 72.7H82.02C82.9533 72.7 83.7267 72.3067 84.34 71.52C84.9667 70.7333 85.28 69.9 85.28 69.02C85.28 68.3933 85.1 67.88 84.74 67.48C84.3933 67.0667 83.88 66.86 83.2 66.86ZM92.9677 70.12C93.6743 70.12 94.201 70.2933 94.5477 70.64C94.9077 70.9733 95.0877 71.46 95.0877 72.1C95.0877 72.7267 94.841 73.2733 94.3477 73.74C93.5077 74.54 92.261 74.94 90.6077 74.94C90.1143 74.94 89.6877 74.9 89.3277 74.82V74.44C89.7943 74.5067 90.181 74.54 90.4877 74.54C91.5943 74.54 92.4477 74.26 93.0477 73.7C93.661 73.14 93.9677 72.5267 93.9677 71.86C93.9677 71.5 93.8677 71.2 93.6677 70.96C93.481 70.72 93.161 70.6 92.7077 70.6C92.2677 70.6 91.8143 70.8067 91.3477 71.22C90.8943 71.6333 90.5343 72.1467 90.2677 72.76C89.7343 74.0533 89.4677 75.1733 89.4677 76.12C89.4677 77.88 90.001 78.76 91.0677 78.76C92.3877 78.76 93.3543 78.04 93.9677 76.6L94.2877 76.68C93.9677 77.4933 93.501 78.1267 92.8877 78.58C92.2877 79.02 91.6077 79.24 90.8477 79.24C90.0877 79.24 89.4477 78.96 88.9277 78.4C88.4077 77.84 88.1477 77.0867 88.1477 76.14C88.1477 75.1933 88.3277 74.28 88.6877 73.4C89.0477 72.5067 89.6077 71.74 90.3677 71.1C91.1277 70.4467 91.9943 70.12 92.9677 70.12ZM99.9169 70.6C99.4102 70.6 98.9769 70.7467 98.6169 71.04C98.2569 71.3333 98.0769 71.7067 98.0769 72.16C98.0769 72.6133 98.2635 73.0267 98.6369 73.4C99.0102 73.7733 99.4169 74.0867 99.8569 74.34C100.297 74.58 100.704 74.9 101.077 75.3C101.45 75.7 101.637 76.1267 101.637 76.58C101.637 77.4333 101.304 78.0933 100.637 78.56C99.9835 79.0133 99.1902 79.24 98.2569 79.24C97.3235 79.24 96.5035 79.02 95.7969 78.58C96.0235 78.1267 96.2369 77.34 96.4369 76.22L96.7769 76.28C96.6835 76.8267 96.6369 77.26 96.6369 77.58C96.6369 77.8867 96.7835 78.1733 97.0769 78.44C97.3835 78.6933 97.8169 78.82 98.3769 78.82C98.9502 78.82 99.4302 78.6467 99.8169 78.3C100.217 77.9533 100.417 77.5 100.417 76.94C100.417 76.58 100.237 76.2333 99.8769 75.9C99.5302 75.5533 99.1435 75.2667 98.7169 75.04C98.3035 74.8133 97.9169 74.4933 97.5569 74.08C97.2102 73.6667 97.0369 73.2133 97.0369 72.72C97.0369 71.9867 97.3235 71.3733 97.8969 70.88C98.4835 70.3733 99.2502 70.12 100.197 70.12C100.93 70.12 101.657 70.3 102.377 70.66C102.31 70.8067 102.197 71.14 102.037 71.66C101.89 72.18 101.777 72.6733 101.697 73.14L101.357 73.08C101.437 72.6533 101.477 72.2467 101.477 71.86C101.477 71.46 101.344 71.1533 101.077 70.94C100.824 70.7133 100.437 70.6 99.9169 70.6ZM104.215 71.08L104.315 70.7H108.755L108.655 71.08H104.215ZM107.395 68.24L107.675 68.44C107.368 69.3733 106.955 70.84 106.435 72.84C105.928 74.84 105.622 76.1333 105.515 76.72C105.408 77.2933 105.355 77.7267 105.355 78.02C105.355 78.46 105.522 78.68 105.855 78.68C106.108 78.68 106.382 78.5133 106.675 78.18C106.968 77.8333 107.222 77.3467 107.435 76.72L107.755 76.8C107.182 78.4267 106.435 79.24 105.515 79.24C104.688 79.24 104.275 78.74 104.275 77.74C104.275 76.9133 104.768 74.6067 105.755 70.82L104.315 70.7C105.048 70.7 105.642 70.5267 106.095 70.18C106.548 69.82 106.982 69.1733 107.395 68.24ZM117.302 70.5C116.836 71.8867 116.396 73.3733 115.982 74.96C115.569 76.5467 115.362 77.5667 115.362 78.02C115.362 78.46 115.529 78.68 115.862 78.68C116.116 78.68 116.389 78.5133 116.682 78.18C116.976 77.8333 117.229 77.3467 117.442 76.72L117.762 76.8C117.189 78.4267 116.442 79.24 115.522 79.24C114.696 79.24 114.282 78.74 114.282 77.74C114.282 77.54 114.316 77.22 114.382 76.78H114.282C113.456 78.42 112.496 79.24 111.402 79.24C110.776 79.24 110.249 78.9667 109.822 78.42C109.409 77.86 109.202 77.18 109.202 76.38C109.202 75.5667 109.309 74.8133 109.522 74.12C109.736 73.4267 110.036 72.78 110.422 72.18C110.809 71.5667 111.322 71.0733 111.962 70.7C112.602 70.3133 113.302 70.12 114.062 70.12C115.049 70.12 115.829 70.54 116.402 71.38L117.022 70.3L117.302 70.5ZM111.882 78.64C112.442 78.64 113.009 78.2067 113.582 77.34C114.236 76.34 114.842 74.7067 115.402 72.44C115.522 71.9067 115.616 71.52 115.682 71.28C115.216 70.8267 114.676 70.6 114.062 70.6C113.462 70.6 112.922 70.8067 112.442 71.22C111.976 71.6333 111.609 72.1533 111.342 72.78C110.796 74.06 110.522 75.2667 110.522 76.4C110.522 77.1467 110.642 77.7067 110.882 78.08C111.136 78.4533 111.469 78.64 111.882 78.64ZM124.622 77.74C124.622 77.54 124.656 77.22 124.722 76.78H124.622C123.769 78.42 122.782 79.24 121.662 79.24C120.462 79.24 119.862 78.5733 119.862 77.24C119.862 76.3733 120.169 74.7667 120.782 72.42L121.142 71.04L119.862 71.14L119.842 70.8C120.762 70.68 121.622 70.5133 122.422 70.3L122.702 70.5C121.582 73.98 121.022 76.2067 121.022 77.18C121.022 78.1533 121.389 78.64 122.122 78.64C122.736 78.64 123.336 78.1933 123.922 77.3C124.522 76.3933 125.016 75.18 125.402 73.66L126.082 71.04L124.802 71.14L124.782 70.8C125.702 70.68 126.562 70.5133 127.362 70.3L127.642 70.5C127.176 71.8867 126.736 73.3733 126.322 74.96C125.909 76.5467 125.702 77.5667 125.702 78.02C125.702 78.46 125.869 78.68 126.202 78.68C126.456 78.68 126.729 78.5133 127.022 78.18C127.316 77.8333 127.569 77.3467 127.782 76.72L128.102 76.8C127.529 78.4267 126.782 79.24 125.862 79.24C125.036 79.24 124.622 78.74 124.622 77.74ZM132.874 70.3L133.154 70.5C132.514 71.9667 131.954 73.6533 131.474 75.56H131.634L131.954 74.68C132.581 72.9733 133.201 71.7867 133.814 71.12C134.428 70.4533 134.961 70.12 135.414 70.12C135.868 70.12 136.201 70.2667 136.414 70.56C136.641 70.8533 136.754 71.2333 136.754 71.7C136.754 72.1667 136.668 72.5733 136.494 72.92C136.321 73.2667 136.068 73.44 135.734 73.44C135.414 73.44 135.148 73.3333 134.934 73.12C135.068 72.9467 135.194 72.6933 135.314 72.36C135.434 72.0267 135.494 71.7333 135.494 71.48C135.494 71.0933 135.334 70.9 135.014 70.9C134.681 70.9 134.268 71.2267 133.774 71.88C132.694 73.2933 131.781 75.6667 131.034 79L129.634 79.12L131.594 71.04L130.314 71.14L130.294 70.8C131.214 70.68 132.074 70.5133 132.874 70.3ZM145.056 70.5C144.59 71.8867 144.15 73.3733 143.736 74.96C143.323 76.5467 143.116 77.5667 143.116 78.02C143.116 78.46 143.283 78.68 143.616 78.68C143.87 78.68 144.143 78.5133 144.436 78.18C144.73 77.8333 144.983 77.3467 145.196 76.72L145.516 76.8C144.943 78.4267 144.196 79.24 143.276 79.24C142.45 79.24 142.036 78.74 142.036 77.74C142.036 77.54 142.07 77.22 142.136 76.78H142.036C141.21 78.42 140.25 79.24 139.156 79.24C138.53 79.24 138.003 78.9667 137.576 78.42C137.163 77.86 136.956 77.18 136.956 76.38C136.956 75.5667 137.063 74.8133 137.276 74.12C137.49 73.4267 137.79 72.78 138.176 72.18C138.563 71.5667 139.076 71.0733 139.716 70.7C140.356 70.3133 141.056 70.12 141.816 70.12C142.803 70.12 143.583 70.54 144.156 71.38L144.776 70.3L145.056 70.5ZM139.636 78.64C140.196 78.64 140.763 78.2067 141.336 77.34C141.99 76.34 142.596 74.7067 143.156 72.44C143.276 71.9067 143.37 71.52 143.436 71.28C142.97 70.8267 142.43 70.6 141.816 70.6C141.216 70.6 140.676 70.8067 140.196 71.22C139.73 71.6333 139.363 72.1533 139.096 72.78C138.55 74.06 138.276 75.2667 138.276 76.4C138.276 77.1467 138.396 77.7067 138.636 78.08C138.89 78.4533 139.223 78.64 139.636 78.64ZM155.116 71.94C155.116 72.5133 154.79 73.5667 154.136 75.1C153.496 76.6333 153.176 77.6133 153.176 78.04C153.176 78.4667 153.343 78.68 153.676 78.68C153.93 78.68 154.203 78.5133 154.496 78.18C154.79 77.8333 155.043 77.3467 155.256 76.72L155.576 76.8C155.003 78.4267 154.256 79.24 153.336 79.24C152.51 79.24 152.096 78.7867 152.096 77.88C152.096 77.4933 152.396 76.5333 152.996 75C153.61 73.4667 153.916 72.48 153.916 72.04C153.916 71.2 153.61 70.78 152.996 70.78C152.33 70.78 151.61 71.32 150.836 72.4C149.943 73.6933 149.15 75.8933 148.456 79L147.056 79.12L149.016 71.04L147.736 71.14L147.716 70.8C148.636 70.68 149.496 70.5133 150.296 70.3L150.576 70.5C149.936 71.9667 149.376 73.6533 148.896 75.56H149.056L149.376 74.68C150.096 72.6667 150.876 71.36 151.716 70.76C152.116 70.4933 152.443 70.32 152.696 70.24C152.963 70.16 153.29 70.12 153.676 70.12C154.076 70.12 154.416 70.28 154.696 70.6C154.976 70.92 155.116 71.3667 155.116 71.94ZM157.555 71.08L157.655 70.7H162.095L161.995 71.08H157.555ZM160.735 68.24L161.015 68.44C160.708 69.3733 160.295 70.84 159.775 72.84C159.268 74.84 158.962 76.1333 158.855 76.72C158.748 77.2933 158.695 77.7267 158.695 78.02C158.695 78.46 158.862 78.68 159.195 78.68C159.448 78.68 159.722 78.5133 160.015 78.18C160.308 77.8333 160.562 77.3467 160.775 76.72L161.095 76.8C160.522 78.4267 159.775 79.24 158.855 79.24C158.028 79.24 157.615 78.74 157.615 77.74C157.615 76.9133 158.108 74.6067 159.095 70.82L157.655 70.7C158.388 70.7 158.982 70.5267 159.435 70.18C159.888 69.82 160.322 69.1733 160.735 68.24ZM167.362 70.12C168.069 70.12 168.596 70.2933 168.942 70.64C169.302 70.9733 169.482 71.46 169.482 72.1C169.482 72.7267 169.236 73.2733 168.742 73.74C167.902 74.54 166.656 74.94 165.002 74.94C164.509 74.94 164.082 74.9 163.722 74.82V74.44C164.189 74.5067 164.576 74.54 164.882 74.54C165.989 74.54 166.842 74.26 167.442 73.7C168.056 73.14 168.362 72.5267 168.362 71.86C168.362 71.5 168.262 71.2 168.062 70.96C167.876 70.72 167.556 70.6 167.102 70.6C166.662 70.6 166.209 70.8067 165.742 71.22C165.289 71.6333 164.929 72.1467 164.662 72.76C164.129 74.0533 163.862 75.1733 163.862 76.12C163.862 77.88 164.396 78.76 165.462 78.76C166.782 78.76 167.749 78.04 168.362 76.6L168.682 76.68C168.362 77.4933 167.896 78.1267 167.282 78.58C166.682 79.02 166.002 79.24 165.242 79.24C164.482 79.24 163.842 78.96 163.322 78.4C162.802 77.84 162.542 77.0867 162.542 76.14C162.542 75.1933 162.722 74.28 163.082 73.4C163.442 72.5067 164.002 71.74 164.762 71.1C165.522 70.4467 166.389 70.12 167.362 70.12ZM181.431 78.64L179.591 73.4L175.311 78.64H176.251L176.191 79H173.591L173.651 78.64H174.351C174.471 78.64 174.611 78.5467 174.771 78.36L179.371 72.76L177.391 67.04C177.325 66.8533 177.225 66.76 177.091 66.76H176.371L176.431 66.4H179.771L179.711 66.76H178.751L180.471 71.7L184.531 66.76H183.591L183.651 66.4H186.251L186.191 66.76H185.491C185.345 66.76 185.205 66.84 185.071 67L180.691 72.32L182.811 78.36C182.878 78.5467 182.978 78.64 183.111 78.64H183.811L183.751 79H180.431L180.491 78.64H181.431Z" fill="#87AAAA"/>
<path d="M185.5 23.5691V41.75C185.5 45.4779 188.522 48.5 192.25 48.5C195.978 48.5 199 45.4779 199 41.75V3.75327C199 2.95082 198.681 2.18123 198.114 1.6138C197.159 0.658573 195.686 0.452311 194.505 1.10837L193.249 1.80591C192.433 2.2593 191.763 2.93511 191.316 3.7547L189.774 6.58144C189.259 7.52476 188.841 8.5174 188.525 9.54441L187 14.5L186.244 17.5225C185.75 19.5 185.5 21.5307 185.5 23.5691Z" fill="#87AAAA"/>
<path d="M210.611 40.5556L210.996 41.6146C211.33 42.5336 211.792 43.4013 212.367 44.1922C214.335 46.8987 217.48 48.5 220.827 48.5H225.805C228.755 48.5 231.527 47.0884 233.262 44.7026C234.077 43.582 234.629 42.292 234.877 40.9287L235.217 39.0571C235.405 38.0211 235.5 36.9703 235.5 35.9173V34.7612C235.5 31.2796 234.901 27.824 233.73 24.5453L233 22.5L229.701 15.9027C229.236 14.9718 228.647 14.1079 227.951 13.3343L225.886 11.0405C225.004 10.0599 223.747 9.5 222.428 9.5C221.193 9.5 220.01 9.99027 219.137 10.863L216.907 13.0925C215.975 14.0247 215.199 15.1011 214.61 16.2803L212.799 19.9026C211.935 21.6305 211.233 23.4348 210.702 25.2923L210.473 26.0932C209.828 28.3534 209.5 30.6925 209.5 33.0431V34.2486C209.5 36.3997 209.876 38.5341 210.611 40.5556Z" fill="#87AAAA"/>
<path d="M227 118V104.25C227 101.903 225.097 100 222.75 100C220.403 100 218.5 101.903 218.5 104.25V118V125.096C218.5 125.692 218.621 126.283 218.856 126.831L219.162 127.544C219.67 128.731 220.837 129.5 222.128 129.5C223.285 129.5 224.355 128.88 224.929 127.874L225.487 126.897C225.826 126.305 226.044 125.652 226.128 124.975L227 118Z" fill="#87AAAA"/>
<path d="M191.5 118V104.5C191.5 102.015 193.515 100 196 100C198.485 100 200.5 102.015 200.5 104.5V118L199.628 124.975C199.544 125.652 199.326 126.305 198.987 126.897L198.471 127.801C197.87 128.852 196.753 129.5 195.543 129.5C194.038 129.5 192.715 128.502 192.301 127.055L192.126 126.44C192.042 126.147 191.99 125.847 191.971 125.544L191.5 118Z" fill="#87AAAA"/>
<path d="M76.4581 120.989L76.0721 102.463C76.0321 100.539 74.4609 99 72.5365 99C70.5833 99 69 100.583 69 102.536V120.052C69 122.008 69.2726 123.954 69.81 125.835L70 126.5L70.562 128.186C70.8236 128.971 71.5579 129.5 72.3849 129.5C73.0745 129.5 73.7111 129.131 74.0532 128.532L75.2085 126.51C75.4024 126.171 75.5622 125.813 75.6858 125.443L75.864 124.908C76.2849 123.645 76.4858 122.32 76.4581 120.989Z" fill="#87AAAA"/>
<path d="M40.5 111.752V102.633C40.5 100.627 42.1265 99 44.1329 99C46.2285 99 47.8895 100.768 47.7588 102.86L47.0793 113.732C47.027 114.569 46.8067 115.387 46.4316 116.137L45.7741 117.452C45.5962 117.808 45.3076 118.096 44.9518 118.274C44.1224 118.689 43.114 118.421 42.5996 117.649L41.711 116.317C41.5707 116.106 41.4527 115.882 41.3587 115.647L41.1491 115.123C40.7203 114.051 40.5 112.907 40.5 111.752Z" fill="#87AAAA"/>
<path d="M37.6935 45.1343L38.534 46.4418C39.7593 48.3478 41.8697 49.5 44.1356 49.5C46.5252 49.5 48.7317 48.2195 49.9173 46.1447L50.6719 44.8242C51.5396 43.3057 51.9605 41.5729 51.8862 39.8255L51.0409 19.9618C51.018 19.4241 50.5755 19 50.0374 19C49.4699 19 49.0152 19.4697 49.0334 20.0368L49.4672 33.4844C49.4852 34.0399 49.0397 34.5 48.4839 34.5C47.9405 34.5 47.5 34.0595 47.5 33.5161V20.75C47.5 20.0596 46.9404 19.5 46.25 19.5C45.5596 19.5 45 20.0596 45 20.75V33.5C45 34.0523 44.5523 34.5 44 34.5C43.4477 34.5 43 34.0523 43 33.5V18.75C43 18.0596 42.4404 17.5 41.75 17.5C41.0596 17.5 40.5 18.0596 40.5 18.75V33.75C40.5 34.1642 40.1642 34.5 39.75 34.5C39.3358 34.5 39 34.1642 39 33.75V20.2744C39 19.8467 38.6533 19.5 38.2256 19.5C37.8174 19.5 37.4793 19.8168 37.4528 20.224L36.2038 39.375C36.0714 41.4047 36.5936 43.4233 37.6935 45.1343Z" fill="#87AAAA"/>
<path d="M63.59 32.6982L65.9526 9.46601C65.9795 9.20135 66.2024 9 66.4684 9C66.7598 9 66.994 9.2401 66.9867 9.53142L66.5201 28.1958C66.5084 28.6658 66.8243 29.0811 67.2804 29.1951C67.9053 29.3513 68.5136 28.8872 68.5279 28.2432L68.9775 8.01085C68.99 7.44898 69.4491 7 70.0111 7C70.5642 7 71.0193 7.43535 71.0439 7.98792L71.9566 28.5232C71.9809 29.0695 72.4309 29.5 72.9778 29.5C73.5423 29.5 74 29.0423 74 28.4778V7.76666C74 7.34324 74.3432 7 74.7667 7C75.1768 7 75.5143 7.32285 75.5326 7.73262L76.4576 28.5464C76.4813 29.0798 76.9207 29.5 77.4546 29.5C78.0239 29.5 78.4779 29.0244 78.4514 28.4557L77.5494 9.06295C77.5225 8.48406 77.9846 8 78.5641 8C79.0929 8 79.5333 8.40573 79.5765 8.93277L81.5638 33.1787C81.846 36.6216 80.9383 40.0572 78.9923 42.9113L75.5042 48.0272C74.8759 48.9487 73.8327 49.5 72.7175 49.5C71.6384 49.5 70.6245 48.9837 69.9898 48.111L66.43 43.2163C64.2213 40.1792 63.2101 36.4343 63.59 32.6982Z" fill="#87AAAA"/>
<line x1="0.996155" y1="53.9923" x2="260.996" y2="53.9923" stroke="#87AAAA" stroke-width="2"/>
<line x1="0.996155" y1="91.9923" x2="260.996" y2="91.9923" stroke="#87AAAA" stroke-width="2"/>
</svg>
